<svg width="39" height="26" viewBox="0 0 39 26" fill="none" xmlns="http://www.w3.org/2000/svg">
<path d="M1.66734 0H36.6673C36.8907 0.00429082 37.111 0.052605 37.3157 0.14209C37.5203 0.231575 37.7054 0.360445 37.8602 0.521484C38.015 0.682523 38.1365 0.87252 38.2179 1.08057C38.2992 1.28861 38.3388 1.51055 38.3343 1.73389V23.4082C38.3388 23.6315 38.2992 23.8535 38.2179 24.0615C38.1365 24.2696 38.015 24.4596 37.8602 24.6206C37.7054 24.7816 37.5203 24.9105 37.3157 25C37.111 25.0895 36.8907 25.1378 36.6673 25.1421H1.66734C1.44399 25.1378 1.2237 25.0895 1.01902 25C0.814343 24.9105 0.629285 24.7816 0.474468 24.6206C0.319651 24.4596 0.198034 24.2696 0.11668 24.0615C0.0353258 23.8535 -0.00416209 23.6315 0.000346857 23.4082V1.73389C-0.00416209 1.51055 0.0353258 1.28861 0.11668 1.08057C0.198034 0.87252 0.319651 0.682523 0.474468 0.521484C0.629285 0.360445 0.814343 0.231575 1.01902 0.14209C1.2237 0.052605 1.44399 0.00429082 1.66734 0Z" fill="url(#paint0_linear_1293_1531)"/>
<defs>
<linearGradient id="paint0_linear_1293_1531" x1="19.1673" y1="25.1421" x2="19.1673" y2="0" gradientUnits="userSpaceOnUse">
<stop stop-color="#E59703"/>
<stop offset="0.231" stop-color="#E59703"/>
<stop offset="0.234" stop-color="white"/>
<stop offset="0.761" stop-color="white"/>
<stop offset="0.766" stop-color="#5457BB"/>
<stop offset="1" stop-color="#5457BB"/>
</linearGradient>
</defs>
</svg>
