<svg width="12" height="11" viewBox="0 0 12 11" fill="none" xmlns="http://www.w3.org/2000/svg">
<path fill-rule="evenodd" clip-rule="evenodd" d="M7.81733 5.50003L11.1508 2.35172C11.6529 1.87752 11.6529 1.10867 11.1508 0.634465C10.6487 0.160257 9.83466 0.160257 9.33256 0.634465L5.99906 3.78277L2.66555 0.634465C2.16345 0.160257 1.34938 0.160257 0.84728 0.634465C0.345177 1.10867 0.345177 1.87752 0.84728 2.35172L4.18078 5.50003L0.84728 8.64834C0.345177 9.12255 0.345177 9.89139 0.84728 10.3656C1.34938 10.8398 2.16345 10.8398 2.66555 10.3656L5.99906 7.21729L9.33256 10.3656C9.83466 10.8398 10.6487 10.8398 11.1508 10.3656C11.6529 9.89139 11.6529 9.12255 11.1508 8.64834L7.81733 5.50003Z" fill="#6D778B"/>
</svg>
